<?xml version="1.0" standalone="no"?><!DOCTYPE svg PUBLIC "-//W3C//DTD SVG 1.1//EN" "http://www.w3.org/Graphics/SVG/1.1/DTD/svg11.dtd"><svg t="1784379023176" class="icon" viewBox="0 0 1024 1024" version="1.1" xmlns="http://www.w3.org/2000/svg" p-id="9420" xmlns:xlink="http://www.w3.org/1999/xlink" width="128" height="128"><path d="M520.96 516.48H848v-136.64a48 48 0 0 0-13.12-32L597.76 96a48 48 0 0 0-34.88-15.04H160A48 48 0 0 0 112 128v768A48 48 0 0 0 160 944h640a48 48 0 0 0 48-48v-57.92H520.96zM544 112l272 272h-233.28A38.72 38.72 0 0 1 544 345.28z" p-id="9421" fill="#0052d9"></path><path d="M651.52 780.48h42.24l13.76-44.48h66.56l13.76 44.16H832l-65.92-193.6h-47.36z m88.64-160a83.84 83.84 0 0 0 2.88 16.64L764.8 704h-48.96l20.16-67.2a97.92 97.92 0 0 0 4.16-16.32zM845.76 586.88h39.04v193.6h-39.04z" p-id="9422" fill="#0052d9"></path></svg>